<?xml version="1.0" standalone="no"?>
<!DOCTYPE svg PUBLIC "-//W3C//DTD SVG 20010904//EN"
 "http://www.w3.org/TR/2001/REC-SVG-20010904/DTD/svg10.dtd">
<svg version="1.0" xmlns="http://www.w3.org/2000/svg"
 width="2560.000000pt" height="265.000000pt" viewBox="0 0 2560.000000 265.000000"
 preserveAspectRatio="xMidYMid meet">

<g transform="translate(0.000000,265.000000) scale(0.100000,-0.100000)"
fill="#000000" stroke="none">
<path d="M22 2634 l-22 -15 0 -1288 c0 -1096 2 -1290 14 -1307 14 -19 41 -19
1298 -22 826 -2 1313 1 1368 8 222 26 403 198 440 418 7 46 10 245 8 632 l-3
565 -27 69 c-50 130 -129 220 -240 277 -121 61 -70 59 -1260 59 l-1088 0 0
294 c0 293 0 295 -22 310 -19 13 -59 16 -233 16 -174 0 -214 -3 -233 -16z
m2473 -1123 c51 -23 93 -65 116 -116 17 -36 19 -72 19 -383 0 -287 -3 -349
-15 -380 -20 -47 -50 -78 -100 -105 l-40 -22 -982 -3 -983 -2 0 515 0 515 973
0 c921 0 974 -1 1012 -19z"/>
<path d="M9042 2634 l-22 -15 0 -1068 c0 -718 4 -1087 11 -1127 14 -78 67
-188 121 -249 56 -64 145 -120 233 -148 70 -22 73 -22 843 -22 754 0 774 0
788 19 11 16 14 64 14 231 0 192 -2 213 -18 228 -16 15 -84 17 -673 19 l-656
3 -48 30 c-35 21 -56 45 -74 80 l-26 49 -3 433 -3 433 728 0 c643 0 731 2 751
16 22 15 22 19 22 234 0 215 0 219 -22 234 -20 14 -108 16 -750 16 l-728 0 0
300 c0 286 -1 300 -19 310 -12 6 -105 10 -233 10 -177 0 -217 -3 -236 -16z"/>
<path d="M22750 2630 c-19 -19 -20 -33 -20 -310 l0 -289 -1107 -3 -1108 -3
-57 -22 c-183 -70 -307 -214 -338 -393 -7 -44 -10 -247 -8 -635 3 -562 4 -571
26 -629 61 -162 195 -284 359 -328 38 -10 337 -13 1381 -13 1309 0 1334 0
1348 19 12 17 14 211 14 1307 l0 1288 -22 15 c-19 13 -59 16 -235 16 -200 0
-214 -1 -233 -20z m-20 -1615 l0 -515 -982 2 c-938 3 -985 4 -1018 22 -49 26
-79 55 -101 98 -18 34 -19 63 -19 388 0 382 1 393 58 454 15 16 45 37 67 47
38 18 87 19 1018 19 l977 0 0 -515z"/>
<path d="M23612 2634 l-22 -15 0 -1079 c0 -749 3 -1095 11 -1132 44 -209 226
-374 439 -398 135 -15 1499 -13 1530 3 l25 13 3 221 c2 191 0 223 -14 237 -14
14 -84 16 -663 16 l-647 0 -53 26 c-34 17 -62 41 -79 67 l-27 41 -3 448 -3
448 723 0 c639 0 726 2 746 16 22 15 22 19 22 234 0 215 0 219 -22 234 -20 14
-108 16 -750 16 l-728 0 0 294 c0 293 0 295 -22 310 -19 13 -59 16 -233 16
-174 0 -214 -3 -233 -16z"/>
<path d="M3854 2015 c-175 -38 -323 -174 -375 -345 -19 -63 -19 -90 -17 -675
l3 -610 23 -57 c51 -126 168 -243 289 -288 31 -11 88 -25 127 -30 40 -5 613
-9 1306 -10 976 0 1240 3 1260 13 l25 13 3 219 c3 214 2 220 -19 238 -20 16
-92 17 -1190 17 -1271 0 -1204 -3 -1262 56 -45 45 -60 83 -65 167 l-5 77 1272
0 1271 0 0 388 c0 310 -3 400 -15 451 -45 189 -196 335 -390 376 -98 21 -2146
21 -2241 0z m2005 -500 c43 -22 108 -100 125 -152 9 -26 16 -66 16 -90 l0 -43
-1021 0 -1022 0 6 54 c10 98 74 203 142 232 47 21 1714 20 1754 -1z"/>
<path d="M7224 2015 c-187 -41 -344 -198 -383 -383 -7 -36 -11 -300 -11 -826
0 -707 1 -775 17 -787 12 -11 65 -15 220 -17 172 -3 209 -1 229 12 l23 16 3
673 3 672 28 48 c15 26 47 60 69 75 l42 27 684 5 c662 5 684 6 698 24 11 16
14 64 14 228 0 195 -1 209 -20 228 -20 20 -33 20 -787 19 -598 0 -781 -4 -829
-14z"/>
<path d="M11694 2015 c-134 -29 -274 -133 -336 -251 -59 -109 -58 -97 -58
-951 l0 -783 24 -15 c21 -14 56 -16 230 -13 181 3 207 5 223 21 17 17 18 62
23 696 l5 679 30 43 c17 23 50 53 74 66 l44 23 669 0 c655 0 668 0 688 20 19
19 20 33 20 230 0 197 -1 211 -20 230 -20 20 -33 20 -787 19 -598 0 -781 -4
-829 -14z"/>
<path d="M13552 2014 c-22 -15 -22 -19 -22 -234 0 -215 0 -219 22 -234 20 -14
139 -16 1081 -16 870 0 1063 -2 1090 -14 70 -29 147 -151 147 -233 l0 -22
-1072 -3 -1073 -3 -73 -27 c-165 -60 -292 -169 -362 -310 -197 -402 54 -857
503 -908 47 -6 602 -10 1302 -10 1089 0 1223 2 1243 16 l22 15 0 777 c0 657
-2 787 -15 835 -49 189 -197 333 -382 372 -57 12 -259 15 -1228 15 -1034 0
-1163 -2 -1183 -16z m2318 -1354 l0 -160 -1028 0 -1028 0 -44 23 c-67 33 -93
78 -88 150 4 48 9 62 37 91 18 18 47 38 64 44 21 6 391 10 1060 11 l1027 1 0
-160z"/>
<path d="M16700 2010 c-20 -20 -20 -33 -20 -993 0 -825 2 -976 14 -993 14 -18
28 -19 246 -19 218 0 232 1 246 19 12 17 14 137 14 763 l0 743 955 0 c921 0
957 -1 993 -19 20 -11 49 -32 64 -48 60 -62 58 -42 58 -761 0 -552 2 -661 14
-678 13 -18 30 -19 222 -22 114 -2 218 -1 230 2 57 15 54 -29 54 794 0 822 -1
838 -56 950 -39 80 -131 173 -214 216 -130 68 -66 66 -1502 66 -1285 0 -1298
0 -1318 -20z"/>
</g>
</svg>
